<svg xmlns="http://www.w3.org/2000/svg" width="32" height="32" id="bank">
    <path
        d="M15.986.002a.5.5 0 0 0-.257.076l-1.938 1.25-1.937 1.25a.5.5 0 1 0 .542.844l1.938-1.25L16 1.096 29.803 10h-1.301a.5.5 0 0 0 0 1c.285 0 .496.215.496.502 0 .287-.21.5-.496.5a.5.5 0 0 0-.5.5V26.5a.5.5 0 0 0 .5.5c.285 0 .496.215.496.502 0 .287-.21.5-.496.5a.5.5 0 0 0 0 1H30c.564 0 1 .436 1 .998s-.438 1-1 1H2c-.562 0-1-.438-1-1a.985.985 0 0 1 1-.998h1.498a.5.5 0 0 0 0-1 .484.484 0 0 1-.496-.5c0-.287.21-.502.496-.502a.5.5 0 0 0 .5-.5v-5.855a.5.5 0 1 0-1 0v5.564c-.552.222-.996.666-.996 1.293 0 .194.139.329.207.5H2c-1.098 0-2 .898-2 1.998s.9 2 2 2h28c1.1 0 2-.9 2-2s-.902-1.998-2-1.998h-.209c.068-.171.207-.306.207-.5 0-.627-.444-1.07-.996-1.293V12.793c.552-.223.996-.664.996-1.291 0-.195-.14-.33-.209-.502H31.5a.5.5 0 0 0 .271-.92l-15.5-10a.5.5 0 0 0-.285-.078zm-5.795 3.742a.5.5 0 0 0-.005.002.5.5 0 0 0-.27.084l-.484.313a.5.5 0 1 0 .543.84l.484-.311a.5.5 0 0 0-.268-.928zM16 4c-1.099 0-2 .902-2 2 0 1.099.901 2 2 2s2-.901 2-2c0-1.098-.901-2-2-2zm-7.752.996a.5.5 0 0 0-.27.084L6.042 6.33 4.104 7.58 2.166 8.83.229 10.08A.5.5 0 0 0 .5 11h1.71c-.068.172-.208.307-.208.502 0 .627.444 1.068.996 1.291v3.209a.5.5 0 1 0 1 0v-3.5a.5.5 0 0 0-.5-.5.484.484 0 0 1-.496-.5c0-.287.21-.502.496-.502a.5.5 0 0 0 0-1H2.199l.51-.328L4.646 8.42l1.938-1.25 1.937-1.25a.5.5 0 0 0-.273-.924zM16 5c.558 0 1 .442 1 1s-.442 1-1 1-1-.442-1-1 .442-1 1-1zM5.5 10v1c.285 0 .5.217.5.502 0 .285-.215.5-.5.5a.5.5 0 0 0-.5.5V26.5a.5.5 0 0 0 .5.5c.285 0 .5.217.5.502 0 .285-.215.5-.5.5a.5.5 0 0 0 0 1h4a.5.5 0 0 0 0-1 .49.49 0 0 1-.502-.5c0-.285.217-.502.502-.502a.5.5 0 0 0 .5-.5V12.502a.5.5 0 0 0-.5-.5.49.49 0 0 1-.502-.5c0-.285.217-.502.502-.502v-1h-4zm6 0v1c.285 0 .502.217.502.502a.49.49 0 0 1-.502.5.5.5 0 0 0-.5.5V26.5a.5.5 0 0 0 .5.5c.285 0 .502.217.502.502a.49.49 0 0 1-.502.5.5.5 0 0 0 0 1h9a.5.5 0 0 0 0-1 .49.49 0 0 1-.502-.5c0-.285.217-.502.502-.502a.5.5 0 0 0 .5-.5V12.502a.5.5 0 0 0-.5-.5.49.49 0 0 1-.502-.5c0-.285.217-.502.502-.502v-1h-9zm11 0v1c.285 0 .502.217.502.502a.49.49 0 0 1-.502.5.5.5 0 0 0-.5.5V26.5a.5.5 0 0 0 .5.5c.285 0 .502.217.502.502a.49.49 0 0 1-.502.5.5.5 0 0 0 0 1h4a.5.5 0 0 0 0-1 .489.489 0 0 1-.5-.5.49.49 0 0 1 .5-.502.5.5 0 0 0 .5-.5V12.502a.5.5 0 0 0-.5-.5.489.489 0 0 1-.5-.5.49.49 0 0 1 .5-.502v-1h-4zM6.791 11h1.416c-.069.172-.209.307-.209.502 0 .629.448 1.07 1.002 1.291v13.416c-.554.222-1.002.664-1.002 1.293 0 .194.14.329.209.5H6.791c.069-.171.209-.306.209-.5 0-.629-.446-1.071-1-1.293V12.793c.553-.222 1-.663 1-1.291 0-.195-.14-.33-.209-.502zm6 0h6.418c-.07.172-.211.307-.211.502 0 .628.449 1.07 1.002 1.291v13.416c-.554.222-1.002.664-1.002 1.293 0 .194.14.329.209.5h-6.414c.069-.171.209-.306.209-.5 0-.629-.448-1.071-1.002-1.293V12.793c.553-.222 1.002-.663 1.002-1.291 0-.195-.142-.33-.211-.502zm11.002 0h1.416c-.07.172-.209.307-.209.502 0 .628.447 1.07 1 1.291v13.416c-.554.222-1 .664-1 1.293 0 .194.14.329.209.5h-1.416c.069-.171.209-.306.209-.5 0-.629-.448-1.071-1.002-1.293V12.793c.554-.222 1.002-.662 1.002-1.291 0-.195-.14-.33-.209-.502zM3.49 17.734a.5.5 0 0 0-.492.506v.713a.5.5 0 1 0 1 0v-.713a.5.5 0 0 0-.508-.506z"
        color="#000" font-family="sans-serif" font-weight="400" overflow="visible"
        style="line-height:normal;text-indent:0;text-align:start;text-decoration-line:none;text-decoration-style:solid;text-decoration-color:#000;text-transform:none;block-progression:tb;white-space:normal;isolation:auto;mix-blend-mode:normal;solid-color:#000;solid-opacity:1">
    </path>
</svg>