<svg xmlns="http://www.w3.org/2000/svg" viewBox="0 0 64 64" id="dollar-balance-scale">
    <path fill="none" stroke="#000" stroke-linecap="round" stroke-linejoin="round" stroke-miterlimit="10"
        d="M42.41 58.99H21.12v-1.42c0-1.52 1.23-2.75 2.75-2.75h15.79c1.52 0 2.75 1.23 2.75 2.75v1.42z"></path>
    <path fill="none" stroke="#000" stroke-linecap="round" stroke-linejoin="round" stroke-miterlimit="10"
        d="m23.87 54.82 4.43-13.44c.56-1.7 2.11-2.84 3.84-2.84h0c1.82 0 3.42 1.25 3.91 3.06l3.6 13.23"></path>
    <path fill="none" stroke="#000" stroke-linecap="round" stroke-linejoin="round" stroke-miterlimit="10"
        d="m36.53 43.31 15.78 2.84c1.41.25 2.35 1.6 2.09 3.01a2.58 2.58 0 0 1-3 2.1l-13.38-2.4m-11.5-2.08-15.09-2.55a2.573 2.573 0 0 1-2.09-3 2.588 2.588 0 0 1 3-2.1l15.82 2.67M9.34 41.23v-6.39M14.52 39.51v-4.67M21.28 28.3h0c0 3.61-2.93 6.54-6.54 6.54H9.18c-3.61 0-6.54-2.93-6.54-6.54h0m18.7 0H2.58C1.43 28.3.5 27.37.5 26.22h0c0-1.15.93-2.08 2.08-2.08h18.77c1.15 0 2.08.93 2.08 2.08h0a2.093 2.093 0 0 1-2.09 2.08zM49.43 45.62v-4.37M61.37 34.7h0c0 3.61-2.93 6.54-6.54 6.54h-5.57c-3.61 0-6.54-2.93-6.54-6.54h0m18.7 0H42.66c-1.15 0-2.08-.93-2.08-2.08h0c0-1.15.93-2.08 2.08-2.08h18.77c1.15 0 2.08.93 2.08 2.08h0a2.087 2.087 0 0 1-2.09 2.08zM54.4 49.16v-7.91M11.96 13.53c-1.23 0-2.24-1-2.24-2.24 0-1.23 1-2.24 2.24-2.24s2.24 1 2.24 2.24m-2.24 2.24c1.23 0 2.24 1 2.24 2.24 0 1.23-1 2.24-2.24 2.24s-2.24-1-2.24-2.24">
    </path>
    <circle cx="11.96" cy="13.53" r="8.52" fill="none" stroke="#000" stroke-linecap="round" stroke-linejoin="round"
        stroke-miterlimit="10"></circle>
    <path fill="none" stroke="#000" stroke-linecap="round" stroke-linejoin="round" stroke-miterlimit="10"
        d="M11.96 9.06V7.73M11.96 19.33V18"></path>
    <g fill="none" stroke="#000" stroke-linecap="round" stroke-linejoin="round" stroke-miterlimit="10">
        <path
            d="M52.84 19.82c-1.23 0-2.24-1-2.24-2.24 0-1.23 1-2.24 2.24-2.24 1.23 0 2.24 1 2.24 2.24m-2.24 2.24c1.23 0 2.24 1 2.24 2.24s-1 2.24-2.24 2.24c-1.23 0-2.24-1-2.24-2.24">
        </path>
        <circle cx="52.84" cy="19.82" r="8.52" transform="rotate(-80.805 52.843 19.817)"></circle>
        <path d="M52.84 15.35v-1.33M52.84 25.62v-1.33"></path>
    </g>
    <path fill="none" stroke="#000" stroke-linecap="round" stroke-linejoin="round" stroke-miterlimit="10"
        d="M33.87 43.91a2.1 2.1 0 1 1-2.1-2.1c1.16-.01 2.1.94 2.1 2.1z"></path>
</svg>