<svg id="SvgjsSvg1089" width="256" height="256" xmlns="http://www.w3.org/2000/svg" version="1.1"
    xmlns:xlink="http://www.w3.org/1999/xlink" xmlns:svgjs="http://svgjs.com/svgjs">
    <defs id="SvgjsDefs1090"></defs>
    <g id="SvgjsG1091"><svg xmlns="http://www.w3.org/2000/svg" data-name="line color" viewBox="0 0 74 74" width="256"
            height="256">
            <polygon fill="#e1e6e9" points="25.527 30.33 7.279 30.33 10.756 18.405 21.872 18.405 25.527 30.33"
                class="colore1e6e9 svgShape"></polygon>
            <polygon fill="#e1e6e9" points="43.99 30.33 25.742 30.33 29.219 18.405 40.335 18.405 43.99 30.33"
                class="colore1e6e9 svgShape"></polygon>
            <polygon fill="#e1e6e9" points="34.669 18.405 16.422 18.405 19.898 6.887 31.014 6.803 34.669 18.405"
                class="colore1e6e9 svgShape"></polygon>
            <polygon fill="#d5d6db"
                points="20.289 20.485 23.306 30.33 25.527 30.33 21.872 18.405 10.756 18.405 10.149 20.485 20.289 20.485"
                class="colord5d6db svgShape"></polygon>
            <polygon fill="#d5d6db"
                points="38.752 20.485 41.769 30.33 43.99 30.33 40.335 18.405 29.219 18.405 28.613 20.485 38.752 20.485"
                class="colord5d6db svgShape"></polygon>
            <polygon fill="#d5d6db"
                points="29.431 8.883 32.431 18.405 34.669 18.405 31.014 6.803 19.898 6.887 19.273 8.96 29.431 8.883"
                class="colord5d6db svgShape"></polygon>
            <circle cx="51.803" cy="50.392" r="17.863" fill="#fcd462" class="colorfcd462 svgShape"></circle>
            <path fill="#323c6b"
                d="M51.8,68.755A18.364,18.364,0,1,1,70.167,50.392,18.384,18.384,0,0,1,51.8,68.755Zm0-35.727A17.364,17.364,0,1,0,69.167,50.392,17.383,17.383,0,0,0,51.8,33.028Z"
                class="color323c6b svgShape"></path>
            <circle cx="51.803" cy="50.392" r="13.683" fill="#fcd462" class="colorfcd462 svgShape"></circle>
            <path fill="#f7be56"
                d="M51.8,36.708a13.669,13.669,0,0,0-11.346,6.033A13.676,13.676,0,0,1,60.986,60.515,13.669,13.669,0,0,0,51.8,36.708Z"
                class="colorf7be56 svgShape"></path>
            <path fill="#323c6b"
                d="M51.8,57.536a3.827,3.827,0,0,1-3.822-3.822.5.5,0,0,1,1,0A2.822,2.822,0,1,0,51.8,50.892a3.823,3.823,0,1,1,3.822-3.823.5.5,0,0,1-1,0A2.822,2.822,0,1,0,51.8,49.892a3.822,3.822,0,1,1,0,7.644Z"
                class="color323c6b svgShape"></path>
            <path fill="#323c6b"
                d="M51.8 44.247a.5.5 0 0 1-.5-.5v-.871a.5.5 0 0 1 1 0v.871A.5.5 0 0 1 51.8 44.247zM51.8 58.407a.5.5 0 0 1-.5-.5v-.871a.5.5 0 0 1 1 0v.871A.5.5 0 0 1 51.8 58.407zM27.949 67.815H9.449a.5.5 0 0 1-.5-.5V49.9a.5.5 0 0 1 1 0V66.815h18a.5.5 0 0 1 0 1z"
                class="color323c6b svgShape"></path>
            <path fill="#323c6b"
                d="M13.173 54.632a.5.5 0 0 1-.376-.17L9.449 50.654 6.1 54.462a.5.5 0 0 1-.751-.66l3.724-4.235a.516.516 0 0 1 .751 0L13.548 53.8a.5.5 0 0 1-.375.83zM64.551 24.6a.5.5 0 0 1-.5-.5V7.185h-18a.5.5 0 0 1 0-1h18.5a.5.5 0 0 1 .5.5V24.1A.5.5 0 0 1 64.551 24.6z"
                class="color323c6b svgShape"></path>
            <path fill="#323c6b"
                d="M64.551 24.6a.5.5 0 0 1-.375-.17L60.452 20.2a.5.5 0 0 1 .751-.66l3.348 3.808L67.9 19.538a.5.5 0 0 1 .751.66l-3.724 4.235A.5.5 0 0 1 64.551 24.6zM5.893 24.867a.484.484 0 0 1-.14-.02.5.5 0 0 1-.34-.619l.179-.618a.5.5 0 1 1 .96.28l-.179.617A.5.5 0 0 1 5.893 24.867zM6.674 22.188a.49.49 0 0 1-.14-.021.5.5 0 0 1-.34-.62l1.831-6.283a.5.5 0 0 1 .48-.36h3.026a.5.5 0 1 1 0 1H8.88L7.154 21.828A.5.5 0 0 1 6.674 22.188zM63.343 33.509a.5.5 0 0 1-.289-.092c-.3-.215-.613-.42-.929-.618a.5.5 0 0 1 .531-.848c.332.208.658.424.977.651a.5.5 0 0 1-.29.907zM71.313 43.524a.5.5 0 0 1-.467-.322 20.56 20.56 0 0 0-5.7-8.159.5.5 0 1 1 .656-.753 21.541 21.541 0 0 1 5.98 8.556.5.5 0 0 1-.289.645A.487.487 0 0 1 71.313 43.524zM25.527 30.83H7.279a.5.5 0 0 1-.48-.64l3.477-11.926a.5.5 0 0 1 .48-.36H21.872a.5.5 0 0 1 .478.354l3.655 11.926a.5.5 0 0 1-.478.646zm-17.581-1H24.851L21.5 18.9H11.131z"
                class="color323c6b svgShape"></path>
            <path fill="#323c6b"
                d="M43.99,30.83H25.742a.5.5,0,0,1-.48-.64l3.477-11.926a.5.5,0,0,1,.48-.36H40.335a.5.5,0,0,1,.478.354l3.655,11.926a.5.5,0,0,1-.478.646Zm-17.581-1h16.9L39.965,18.9H29.594Z"
                class="color323c6b svgShape"></path>
            <path fill="#323c6b"
                d="M34.669 18.9H16.422a.5.5 0 0 1-.479-.644L19.42 6.743a.5.5 0 0 1 .475-.355L31.01 6.3a.546.546 0 0 1 .481.349l3.655 11.6a.5.5 0 0 1-.477.65zM17.1 17.9H33.987l-3.339-10.6-10.377.079zM51.8 64.575A14.184 14.184 0 1 1 65.986 50.392 14.2 14.2 0 0 1 51.8 64.575zm0-27.367A13.184 13.184 0 1 0 64.986 50.392 13.2 13.2 0 0 0 51.8 37.208z"
                class="color323c6b svgShape"></path>
            <path fill="#ffffff"
                d="M44.065 58.179a.631.631 0 0 1-.466-.205c-.24-.26-.474-.526-.689-.808a.634.634 0 0 1 1.01-.768c.19.25.4.485.612.717a.635.635 0 0 1-.467 1.064zM42.131 55.281a.633.633 0 0 1-.581-.379 11.153 11.153 0 0 1-.408-7.955.635.635 0 0 1 1.208.39 9.882 9.882 0 0 0 .361 7.053.636.636 0 0 1-.325.837A.625.625 0 0 1 42.131 55.281z"
                class="colorfff svgShape"></path>
        </svg></g>
</svg>