<svg xmlns="http://www.w3.org/2000/svg" enable-background="new 0 0 64 64" viewBox="0 0 64 64" id="piggy-bank">
    <path d="M45.55,64h-7.71c-1.13,0-2.05-0.92-2.05-2.05v-2.39c-0.05-0.08-0.09-0.1-0.15-0.08c-3.41,1.52-7.16,1.68-11.13,0.45
					c0,0-0.12,0.06-0.12,0.06l-0.48,2.85C23.74,63.89,23.08,64,22.81,64h-8.62c-0.32,0-0.62-0.14-0.82-0.38
					c-0.2-0.24-0.29-0.56-0.24-0.87l1.27-7.56c-2.62-2.48-4.18-4.96-4.78-7.56H6.65c-1.18,0-2.15-0.96-2.15-2.15v-6.85
					c0-1.14,0.89-2.08,2.03-2.14l2.93-0.16c0.59-2.7,2.59-4.61,4.66-6.33l-2.04-6.81c-0.11-0.38-0.03-0.79,0.22-1.1
					c0.25-0.31,0.63-0.48,1.05-0.45c3.13,0.24,6.03,1.45,8.63,3.6c5.65-2.62,12.62-2.08,18.74,1.45c5.65,3.27,9.24,8.4,9.61,13.72
					c0.28,5.31-0.94,9.23-3.7,11.98c-0.45,0.45-0.65,1.08-0.53,1.69l1.46,7.51c0.12,0.6-0.04,1.22-0.43,1.69
					C46.73,63.73,46.16,64,45.55,64z M35.7,58.49c0.21,0,0.41,0.06,0.59,0.18c0.3,0.2,0.49,0.53,0.49,0.9v2.39
					c0,0.59,0.48,1.06,1.06,1.06h7.71c0.32,0,0.62-0.14,0.82-0.39c0.2-0.25,0.28-0.57,0.22-0.88l-1.46-7.51
					c-0.18-0.93,0.12-1.89,0.8-2.57c2.56-2.54,3.67-6.21,3.41-11.22c-0.34-4.98-3.75-9.82-9.12-12.92
					c-5.93-3.43-12.7-3.91-18.1-1.28c-0.18,0.09-0.39,0.06-0.54-0.07c-2.5-2.14-5.29-3.34-8.31-3.57c-0.1-0.01-0.18,0.06-0.2,0.09
					c-0.03,0.03-0.07,0.11-0.04,0.2l2.13,7.12c0.06,0.19-0.01,0.4-0.16,0.52c-2.19,1.8-4.2,3.64-4.64,6.32
					c-0.04,0.23-0.23,0.4-0.46,0.41l-3.31,0.18c-0.62,0.03-1.1,0.54-1.1,1.16v6.85c0,0.64,0.52,1.16,1.16,1.16h3.37
					c0.24,0,0.44,0.17,0.48,0.4c0.49,2.6,2.05,5.09,4.76,7.61c0.12,0.11,0.18,0.28,0.15,0.44l-1.32,7.82l0.09,0.11h8.62
					c0.01,0,0.09-0.06,0.13-0.33l0.48-2.85c0.05-0.3,0.23-0.57,0.49-0.73c0.27-0.16,0.59-0.2,0.89-0.11
					c3.79,1.17,7.2,1.04,10.44-0.41C35.39,58.52,35.55,58.49,35.7,58.49z M9.88,36.79L9.88,36.79L9.88,36.79z"></path>
    <path
        d="M16.92 36.59c-1.26 0-2.28-1.02-2.28-2.28s1.02-2.28 2.28-2.28c1.26 0 2.28 1.02 2.28 2.28S18.18 36.59 16.92 36.59zM16.92 33.01c-.72 0-1.3.58-1.3 1.3 0 .72.58 1.3 1.3 1.3.72 0 1.3-.58 1.3-1.3C18.22 33.59 17.63 33.01 16.92 33.01zM59 40.44c-1.63 0-3.06-.32-4.24-.95-1.56.65-3.4.89-5.08.67-.27-.04-.46-.28-.42-.55.04-.27.29-.46.55-.42 1.29.17 2.68.04 3.92-.37-1.45-1.16-2.11-2.69-2.41-3.85-.24-.93-.18-1.81.18-2.55.54-1.13 1.59-1.8 2.87-1.83 1.58-.05 3.16.86 3.93 2.26.38.69.5 1.54.34 2.38-.28 1.5-1.24 2.79-2.76 3.71.9.35 1.94.53 3.11.53.27 0 .49.22.49.49C59.49 40.22 59.27 40.44 59 40.44zM54.49 31.56c-.03 0-.05 0-.08 0-.53.01-1.5.2-2.01 1.27-.32.67-.24 1.39-.11 1.88.29 1.13.96 2.65 2.54 3.67 1.59-.78 2.6-1.96 2.86-3.34.12-.63.04-1.24-.23-1.73C56.88 32.27 55.67 31.56 54.49 31.56z">
    </path>
    <g>
        <path d="M38.4,31.56c-0.08,0-0.17-0.02-0.25-0.07c-4.78-2.79-9.43-2.79-14.21,0c-0.23,0.14-0.54,0.06-0.67-0.18
				c-0.14-0.23-0.06-0.54,0.18-0.67c5.04-2.94,10.16-2.94,15.2,0c0.23,0.14,0.31,0.44,0.18,0.67C38.74,31.48,38.57,31.56,38.4,31.56
				z"></path>
    </g>
    <g>
        <path d="M30.35,22.61c-6.23,0-11.3-5.07-11.3-11.3c0-6.23,5.07-11.3,11.3-11.3c6.23,0,11.3,5.07,11.3,11.3
				C41.65,17.54,36.58,22.61,30.35,22.61z M30.35,0.98c-5.69,0-10.32,4.63-10.32,10.32s4.63,10.32,10.32,10.32
				c5.69,0,10.32-4.63,10.32-10.32S36.04,0.98,30.35,0.98z"></path>
        <path d="M30.35,20.74c-5.21,0-9.44-4.24-9.44-9.44c0-5.21,4.23-9.44,9.44-9.44s9.44,4.24,9.44,9.44
				C39.79,16.51,35.55,20.74,30.35,20.74z M30.35,2.85c-4.66,0-8.46,3.79-8.46,8.46c0,4.66,3.79,8.46,8.46,8.46
				c4.66,0,8.46-3.79,8.46-8.46C38.8,6.64,35.01,2.85,30.35,2.85z"></path>
        <path
            d="M30.35 2.85c-.06 0-.12-.01-.19-.04-.25-.1-.37-.39-.27-.64.2-.5.2-.99 0-1.49-.1-.25.02-.54.27-.64.25-.1.54.02.64.27.3.74.3 1.49 0 2.24C30.73 2.73 30.54 2.85 30.35 2.85zM24.02 5.47c-.19 0-.37-.11-.45-.3-.21-.5-.55-.84-1.05-1.05-.25-.11-.37-.39-.26-.64.1-.25.39-.37.65-.26.74.31 1.27.84 1.58 1.58.11.25-.01.54-.26.64C24.15 5.46 24.08 5.47 24.02 5.47zM21.4 11.8c-.06 0-.12-.01-.19-.04-.5-.2-.99-.2-1.49 0-.25.1-.54-.02-.64-.27-.1-.25.02-.54.27-.64.74-.3 1.49-.3 2.23 0 .25.1.37.39.27.64C21.78 11.68 21.59 11.8 21.4 11.8zM22.7 19.44c-.06 0-.13-.01-.19-.04-.25-.11-.37-.39-.26-.64.31-.74.84-1.27 1.58-1.58.25-.1.54.01.65.26.11.25-.01.54-.26.64-.5.21-.85.56-1.05 1.05C23.08 19.33 22.9 19.44 22.7 19.44zM30.35 22.61c-.19 0-.38-.12-.46-.31-.3-.74-.3-1.49 0-2.23.1-.25.39-.37.64-.27.25.1.37.39.27.64-.2.5-.2.99 0 1.49.1.25-.02.54-.27.64C30.47 22.6 30.41 22.61 30.35 22.61zM37.99 19.44c-.06 0-.13-.01-.19-.04-.74-.31-1.27-.84-1.58-1.58-.11-.25.01-.54.26-.64.25-.11.54.01.64.26.21.5.55.84 1.05 1.05.25.11.37.39.26.64C38.37 19.33 38.19 19.44 37.99 19.44zM40.23 11.99c-.37 0-.75-.08-1.12-.23-.25-.1-.37-.39-.27-.64.1-.25.39-.37.64-.27.5.2.99.2 1.49 0 .25-.1.54.02.64.27.1.25-.02.54-.27.64C40.98 11.91 40.6 11.99 40.23 11.99zM36.68 5.47c-.19 0-.38-.11-.45-.3-.11-.25.01-.54.26-.64.5-.21.85-.56 1.05-1.05.1-.25.39-.37.64-.26.25.11.37.39.26.64-.31.74-.84 1.27-1.58 1.58C36.8 5.46 36.74 5.47 36.68 5.47z">
        </path>
    </g>
    <g>
        <path d="M30.35,11.8c-1.5,0-2.72-1.22-2.72-2.72c0-1.5,1.22-2.72,2.72-2.72c1.5,0,2.72,1.22,2.72,2.72
					c0,0.27-0.22,0.49-0.49,0.49c-0.27,0-0.49-0.22-0.49-0.49c0-0.96-0.78-1.74-1.74-1.74c-0.96,0-1.73,0.78-1.73,1.74
					c0,0.96,0.78,1.73,1.73,1.73c0.27,0,0.49,0.22,0.49,0.49C30.84,11.58,30.62,11.8,30.35,11.8z"></path>
        <path
            d="M30.35 16.25c-1.5 0-2.72-1.22-2.72-2.72 0-.27.22-.49.49-.49.27 0 .49.22.49.49 0 .96.78 1.73 1.73 1.73.96 0 1.74-.78 1.74-1.73 0-.96-.78-1.74-1.74-1.74-.27 0-.49-.22-.49-.49 0-.27.22-.49.49-.49 1.5 0 2.72 1.22 2.72 2.72C33.07 15.03 31.85 16.25 30.35 16.25zM30.35 7.34c-.27 0-.49-.22-.49-.49V5.53c0-.27.22-.49.49-.49.27 0 .49.22.49.49v1.32C30.84 7.12 30.62 7.34 30.35 7.34z">
        </path>
        <g>
            <path d="M30.35,17.57c-0.27,0-0.49-0.22-0.49-0.49v-1.32c0-0.27,0.22-0.49,0.49-0.49c0.27,0,0.49,0.22,0.49,0.49v1.32
				C30.84,17.35,30.62,17.57,30.35,17.57z"></path>
        </g>
    </g>
</svg>