<svg id="SvgjsSvg1070" width="256" height="256" xmlns="http://www.w3.org/2000/svg" version="1.1"
    xmlns:xlink="http://www.w3.org/1999/xlink" xmlns:svgjs="http://svgjs.com/svgjs">
    <defs id="SvgjsDefs1071"></defs>
    <g id="SvgjsG1072"><svg xmlns="http://www.w3.org/2000/svg" viewBox="0 0 66 66" width="256" height="256">
            <path fill="#fae2ca"
                d="M65 33.12c0-17.67-14.33-32-32-32s-32 14.33-32 32c0 9.03 3.75 17.18 9.76 23h44.47c6.02-5.81 9.77-13.96 9.77-23z"
                class="colorfae2ca svgShape"></path>
            <path fill="#262d49"
                d="M64 56.88H2c-.41 0-.75-.34-.75-.75s.34-.75.75-.75h62c.41 0 .75.34.75.75s-.34.75-.75.75z"
                class="color262d49 svgShape"></path>
            <path fill="#c2cbe8"
                d="M55 60.88H11c-.41 0-.75-.34-.75-.75s.34-.75.75-.75h44c.41 0 .75.34.75.75s-.34.75-.75.75zm-8 4h-6c-.41 0-.75-.34-.75-.75s.34-.75.75-.75h6c.41 0 .75.34.75.75s-.34.75-.75.75zm-10 0H19c-.41 0-.75-.34-.75-.75s.34-.75.75-.75h18c.41 0 .75.34.75.75s-.34.75-.75.75z"
                class="colorc2cbe8 svgShape"></path>
            <path fill="#e3c85d"
                d="M5.99 51.12a4.271 4.271 0 0 1-1.98-1.98s0-.01-.01-.01c0 0 0 .01-.01.01-.42.87-1.11 1.55-1.98 1.98 0 0-.01 0-.01.01 0 0 .01 0 .01.01.87.42 1.55 1.11 1.98 1.98 0 0 0 .01.01.01 0 0 0-.01.01-.01.42-.87 1.11-1.55 1.98-1.98 0 0 .01 0 .01-.01s-.01-.01-.01-.01zm.99-47.01A6.475 6.475 0 0 1 4 1.12c0 .01-.01.01-.01.02a6.475 6.475 0 0 1-2.97 2.97c-.01.01-.01.01-.02.01.01 0 .01.01.02.01A6.475 6.475 0 0 1 4 7.12s.01-.01.01-.02c.64-1.3 1.67-2.33 2.97-2.97.01 0 .01-.01.02-.01-.01 0-.01 0-.02-.01zm53.01 41.01a4.271 4.271 0 0 1-1.98-1.98s0-.01-.01-.01c0 0 0 .01-.01.01-.42.87-1.11 1.55-1.98 1.98 0 0-.01 0-.01.01 0 0 .01 0 .01.01.87.42 1.55 1.11 1.98 1.98 0 0 0 .01.01.01 0 0 0-.01.01-.01.42-.87 1.11-1.55 1.98-1.98 0 0 .01 0 .01-.01s-.01-.01-.01-.01zm-8-41c-.43-.21-.77-.55-.99-.99v-.01.01c-.21.43-.56.78-.99.99H50h.01c.43.21.78.56.99.99v.01-.01c.22-.43.56-.77.99-.99.01.01.01.01 0 0 .01 0 .01 0 0 0zm12.99 12.99a6.475 6.475 0 0 1-2.97-2.97c0-.01-.01-.01-.01-.02 0 .01-.01.01-.01.02a6.475 6.475 0 0 1-2.97 2.97c-.01 0-.01.01-.02.01.01 0 .01.01.02.01 1.3.64 2.33 1.67 2.97 2.97 0 .01.01.01.01.02 0-.01.01-.01.01-.02.64-1.3 1.67-2.33 2.97-2.97.01 0 .01-.01.02-.01-.01 0-.01 0-.02-.01z"
                class="colore3c85d svgShape"></path>
            <path fill="#ebd88b"
                d="M56 29.12 51.18 34l1.74 6.63-6.61 1.8-1.81 6.62-6.63-1.74L33 52.12l-4.87-4.81-6.63 1.74-1.81-6.62-6.61-1.8L14.82 34 10 29.12l4.82-4.87-1.74-6.63 6.61-1.8L21.5 9.2l6.63 1.74L33 6.12l4.87 4.82L44.5 9.2l1.81 6.62 6.61 1.8-1.74 6.63z"
                class="colorebd88b svgShape"></path>
            <path fill="#262d49"
                d="M33 52.88c-.19 0-.38-.07-.53-.22l-4.57-4.52-6.22 1.63c-.4.11-.81-.13-.91-.53l-1.69-6.2-6.2-1.69a.753.753 0 0 1-.53-.91l1.63-6.22-4.52-4.57a.742.742 0 0 1 0-1.05l4.52-4.57-1.63-6.22c-.1-.4.13-.81.53-.91l6.2-1.69 1.69-6.2c.11-.4.51-.63.91-.53l6.22 1.63 4.57-4.52c.29-.29.76-.29 1.05 0l4.57 4.52 6.22-1.63c.4-.1.81.13.91.53l1.69 6.2 6.2 1.69c.4.11.63.52.53.91l-1.63 6.21 4.52 4.57c.29.29.29.76 0 1.05l-4.52 4.57 1.63 6.22c.1.4-.13.81-.53.91l-6.2 1.69-1.69 6.2c-.11.4-.51.63-.91.53l-6.22-1.63-4.57 4.52c-.14.15-.33.23-.52.23zm-4.87-6.32c.2 0 .38.08.53.22l4.35 4.3 4.35-4.3c.19-.19.46-.26.72-.19l5.91 1.55 1.61-5.9c.07-.26.27-.46.53-.53l5.9-1.61-1.55-5.91a.76.76 0 0 1 .19-.72l4.3-4.35-4.3-4.35c-.19-.19-.26-.46-.19-.72l1.55-5.91-5.9-1.61a.747.747 0 0 1-.53-.53l-1.61-5.9-5.91 1.55a.76.76 0 0 1-.72-.19L33 7.18l-4.35 4.3c-.19.19-.46.26-.72.19l-5.91-1.55-1.61 5.9c-.07.26-.27.46-.53.53l-5.9 1.61 1.55 5.91a.76.76 0 0 1-.19.72l-4.3 4.35 4.3 4.35c.19.19.26.46.19.72l-1.55 5.91 5.9 1.61c.26.07.46.27.53.53l1.61 5.9 5.91-1.55c.07-.05.13-.05.2-.05z"
                class="color262d49 svgShape"></path>
            <circle cx="33" cy="31.13" r="14.75" fill="#262d49" opacity=".1" class="color262d49 svgShape"></circle>
            <circle cx="33" cy="29.12" r="14" fill="#e3c85d" class="colore3c85d svgShape"></circle>
            <path fill="#262d49"
                d="M33 43.88c-8.13 0-14.75-6.62-14.75-14.75S24.87 14.38 33 14.38 47.75 21 47.75 29.13 41.13 43.88 33 43.88zm0-28c-7.31 0-13.25 5.94-13.25 13.25S25.69 42.38 33 42.38s13.25-5.94 13.25-13.25S40.31 15.88 33 15.88z"
                class="color262d49 svgShape"></path>
            <path fill="#ffffff"
                d="M27.17 23.12h-1.73v-.93h4.58v.93h-1.74v5.14h-1.11v-5.14zm4.12 3.42-.52 1.72h-1.14l1.94-6.06h1.41l1.97 6.06h-1.19l-.55-1.72h-1.92zm1.74-.84-.48-1.49c-.12-.37-.22-.78-.31-1.13h-.02c-.09.35-.18.77-.29 1.13l-.47 1.49h1.57zm5.84 2.56-.66-1.21c-.26-.47-.43-.79-.6-1.14h-.03c-.14.35-.31.67-.55 1.14l-.6 1.21h-1.27l1.8-3.07-1.73-3h1.27l.66 1.25c.2.38.34.67.5 1.02h.02c.16-.38.29-.65.48-1.02l.65-1.25h1.27l-1.77 2.96 1.84 3.1h-1.28zM24 29.99h3.5v.91h-2.39v1.67h2.23v.91h-2.23v2.57H24v-6.06zm4.58.08c.41-.07 1.03-.13 1.67-.13.87 0 1.47.14 1.87.49.33.28.52.7.52 1.21 0 .78-.53 1.31-1.1 1.52v.03c.43.16.69.58.85 1.17.19.76.35 1.46.48 1.69h-1.14c-.09-.18-.23-.67-.4-1.43-.17-.79-.46-1.04-1.09-1.06h-.56v2.49h-1.1v-5.98zm1.1 2.69h.66c.75 0 1.21-.4 1.21-1 0-.67-.47-.97-1.19-.97-.35 0-.58.03-.68.05v1.92zm7.42.61h-2.28v1.78h2.55v.91H33.7V30h3.53v.91h-2.42v1.57h2.28v.89zm4.63 0h-2.28v1.78H42v.91h-3.66V30h3.53v.91h-2.42v1.57h2.28v.89z"
                class="colorfff svgShape"></path>
        </svg></g>
</svg>