<svg xmlns="http://www.w3.org/2000/svg" width="96" height="96" id="graph">
    <path
        style="line-height:normal;text-indent:0;text-align:start;text-decoration-line:none;text-decoration-style:solid;text-decoration-color:#000;text-transform:none;block-progression:tb;white-space:normal;isolation:auto;mix-blend-mode:normal;solid-color:#000;solid-opacity:1"
        fill-rule="evenodd"
        d="M48 0C21.496 0 0 21.496 0 48s21.496 48 48 48 48-21.496 48-48S74.504 0 48 0zm0 1c25.963 0 47 21.037 47 47S73.963 95 48 95 1 73.963 1 48 22.037 1 48 1zM20.492 18a.5.5 0 0 0-.492.508V75h-1.492a.5.5 0 1 0 0 1H20v1.494a.5.5 0 1 0 1 0V76h56.492a.5.5 0 1 0 0-1h-52.91l12.647-15.805 6.33 4.217a3.507 3.507 0 0 0 4.714-.775l7.942-10.325 4.25 3.038a3.507 3.507 0 0 0 4.787-.686L73.707 43.9l2.953 2.954a.5.5 0 0 0 .854-.354v-11a.5.5 0 0 0-.5-.5h-3.057l.072.01a3.452 3.452 0 0 0-.674-.033v-.004c-.096 0-.191.013-.287.025h-7.054a.5.5 0 0 0-.354.854l3.06 3.062-6.906 8.795-4.279-3.057a3.508 3.508 0 0 0-4.808.713L44.72 55.773l-6.28-4.187a3.507 3.507 0 0 0-4.673.727L21 68.275V18.508a.5.5 0 0 0-.508-.508zm52.91 17.969v.002c.161-.01.323-.002.483.023a.5.5 0 0 0 .072 0h2.557v9.293l-2.498-2.498a.5.5 0 0 0-.746.045l-8.803 11.205a2.494 2.494 0 0 1-3.42.49l-4.643-3.316a.5.5 0 0 0-.687.101L47.48 62.02a2.493 2.493 0 0 1-3.367.554l-6.71-4.472a.5.5 0 0 0-.669.103l-13.433 16.79H21v-5.126l13.549-16.935a2.493 2.493 0 0 1 3.338-.518l6.668 4.445a.5.5 0 0 0 .674-.109l8.29-10.777a2.492 2.492 0 0 1 3.434-.51l4.668 3.334a.5.5 0 0 0 .684-.1l7.476-9.52a.5.5 0 0 0-.039-.663l-2.521-2.522h5.86a.5.5 0 0 0 .071 0 2.62 2.62 0 0 1 .25-.025z"
        color="#000" enable-background="accumulate" font-family="sans-serif" font-weight="400" overflow="visible">
    </path>
</svg>