<svg id="SvgjsSvg1001" width="256" height="256" xmlns="http://www.w3.org/2000/svg" version="1.1" xmlns:xlink="http://www.w3.org/1999/xlink" xmlns:svgjs="http://svgjs.com/svgjs"><defs id="SvgjsDefs1002"></defs><g id="SvgjsG1008"><svg xmlns="http://www.w3.org/2000/svg" viewBox="0 0 32 32" width="256" height="256"><path fill="#333333" d="M16.683 12.269c-.041-.038-.093-.055-.138-.085-.057-.038-.11-.081-.172-.106-.057-.023-.117-.029-.177-.041-.066-.013-.13-.031-.198-.031-.06 0-.116.017-.175.028-.067.012-.133.019-.198.045-.059.024-.109.065-.163.1-.048.031-.101.049-.144.089l-15 14A1.002 1.002 0 0 0 1 28c.244 0 .489-.089.683-.269L16 14.369l14.317 13.363a1.005 1.005 0 0 0 1.414-.049 1.002 1.002 0 0 0-.049-1.414l-14.999-14z" class="color333 svgShape"></path><path fill="#333333" d="M16.683 6.269c-.042-.039-.093-.055-.139-.085-.056-.037-.109-.08-.17-.104-.06-.024-.122-.03-.184-.042-.063-.012-.124-.03-.189-.03s-.125.018-.189.03c-.063.012-.124.018-.184.042-.061.025-.114.067-.17.104-.046.03-.098.047-.14.086l-15 14A.998.998 0 1 0 1 22c.244 0 .489-.089.683-.269L16 8.369l14.317 13.363a1.005 1.005 0 0 0 1.414-.049 1.002 1.002 0 0 0-.049-1.414l-14.999-14z" class="color333 svgShape"></path></svg></g></svg>